<?xml version="1.0" encoding="iso-8859-1"?>
<!-- Generator: Adobe Illustrator 18.1.1, SVG Export Plug-In . SVG Version: 6.00 Build 0)  -->
<svg version="1.1" id="Capa_1" xmlns="http://www.w3.org/2000/svg" xmlns:xlink="http://www.w3.org/1999/xlink" x="0px" y="0px"
	 viewBox="0 0 18.468 18.468" style="enable-background:new 0 0 18.468 18.468;" xml:space="preserve">
<g>
	<g>
		<path style="fill:#030104;" d="M15.713,0H2.753C2.48,0,2.257,0.222,2.257,0.496v17.476c0,0.273,0.222,0.496,0.496,0.496h9.667
			c0.142,0,0.276-0.061,0.37-0.165l3.293-3.689c0.082-0.09,0.127-0.208,0.127-0.329V0.496C16.21,0.222,15.987,0,15.713,0z
			 M14.646,12.907l-2.955-0.002l0,0c-0.146,0-0.285,0.058-0.39,0.161c-0.102,0.103-0.16,0.243-0.16,0.39l0.011,3.699H3.746V1.243
			h10.899C14.645,1.243,14.645,12.907,14.646,12.907z"/>
		<path style="fill:#030104;" d="M12.158,10.131H9.05v-0.026l0.761-0.633c1.193-1.066,2.196-2.17,2.196-3.554
			c0-1.496-1.029-2.588-2.894-2.588c-1.118,0-2.082,0.38-2.703,0.85l0.544,1.383c0.433-0.33,1.055-0.685,1.765-0.685
			c0.951,0,1.357,0.533,1.357,1.204c-0.024,0.966-0.901,1.891-2.702,3.504L6.308,10.55v1.168h5.85V10.131z"/>
	</g>
</g>
<g>
</g>
<g>
</g>
<g>
</g>
<g>
</g>
<g>
</g>
<g>
</g>
<g>
</g>
<g>
</g>
<g>
</g>
<g>
</g>
<g>
</g>
<g>
</g>
<g>
</g>
<g>
</g>
<g>
</g>
</svg>
