<svg id="regular" enable-background="new 0 0 24 24" height="512" viewBox="0 0 24 24" width="512" xmlns="http://www.w3.org/2000/svg"><path d="m4 15.383c0 3.654 3.394 8.134 3.538 8.323.148.192.371.294.597.294.158 0 .318-.05.455-.154.328-.252.392-.723.14-1.052-.033-.042-3.23-4.259-3.23-7.411 0-1.449.772-2.395 1.411-2.935l.482 3.052c.059.369.378.633.74.633.039 0 .078-.003.118-.009.409-.065.688-.449.624-.858l-1.779-11.267c-.109-.719.924-.897 1.047-.149l1.672 8.241c.074.364.407.633.776.6.372-.021.672-.311.706-.682l.896-9.884c.067-.895 1.37-.785 1.3.109l-.79 9.646c-.031.381.228.724.602.797.373.076.745-.145.86-.508l2.641-8.304c.21-.763 1.255-.405 1.104.268-2.372 8.736-2.411 8.404-2.057 8.832.152.182.063.091.36.248.287.044.493.038.729-.198.019-.019.044-.032.061-.053.036-.044.131-.246.135-.261.085-.295.357-.501.661-.501.386 0 .7.325.7.725v.285c0 6.181-3.139 9.483-3.169 9.515-.29.295-.286.77.01 1.061.146.144.336.215.525.215.194 0 .388-.075.535-.225.148-.151 3.6-3.74 3.6-10.567v-.285c0-1.233-1.012-2.288-2.32-2.215l1.685-6.213c.602-2.643-3.299-3.616-3.998-1.056l-.631 1.983.251-3.067c.232-2.829-4.073-3.243-4.289-.355l-.433 4.77-.647-3.193c-.429-2.592-4.414-2.056-4.005.65l1.035 6.555c-.87.546-2.648 1.979-2.648 4.6z"/></svg>